0
SECTION
2
HEADER
9
$INSUNITS
70
4
9
$ACADVER
1
AC1014
9
$HANDSEED
5
FFFF
0
ENDSEC
0
SECTION
2
TABLES
0
TABLE
2
VPORT
5
8
100
AcDbSymbolTable
0
ENDTAB
0
TABLE
2
LTYPE
5
5
100
AcDbSymbolTable
0
LTYPE
5
14
100
AcDbSymbolTableRecord
100
AcDbLinetypeTableRecord
2
BYBLOCK
70
0
0
LTYPE
5
15
100
AcDbSymbolTableRecord
100
AcDbLinetypeTableRecord
2
BYLAYER
70
0
0
ENDTAB
0
TABLE
2
LAYER
5
2
100
AcDbSymbolTable
70
2
0
LAYER
5
50
100
AcDbSymbolTableRecord
100
AcDbLayerTableRecord
2
0
70
0
6
CONTINUOUS
0
ENDTAB
0
TABLE
2
STYLE
5
3
100
AcDbSymbolTable
70
1
0
STYLE
5
11
100
AcDbSymbolTableRecord
100
AcDbTextStyleTableRecord
2
STANDARD
70
0
0
ENDTAB
0
TABLE
2
VIEW
5
6
100
AcDbSymbolTable
70
0
0
ENDTAB
0
TABLE
2
UCS
5
7
100
AcDbSymbolTable
70
0
0
ENDTAB
0
TABLE
2
APPID
5
9
100
AcDbSymbolTable
70
2
0
APPID
5
12
100
AcDbSymbolTableRecord
100
AcDbRegAppTableRecord
2
ACAD
70
0
0
ENDTAB
0
TABLE
2
DIMSTYLE
5
A
100
AcDbSymbolTable
70
1
0
ENDTAB
0
TABLE
2
BLOCK_RECORD
5
1
100
AcDbSymbolTable
70
1
0
BLOCK_RECORD
5
1F
100
AcDbSymbolTableRecord
100
AcDbBlockTableRecord
2
*MODEL_SPACE
0
BLOCK_RECORD
5
1B
100
AcDbSymbolTableRecord
100
AcDbBlockTableRecord
2
*PAPER_SPACE
0
ENDTAB
0
ENDSEC
0
SECTION
2
BLOCKS
0
BLOCK
5
20
100
AcDbEntity
100
AcDbBlockBegin
2
*MODEL_SPACE
0
ENDBLK
5
21
100
AcDbEntity
100
AcDbBlockEnd
0
BLOCK
5
1C
100
AcDbEntity
100
AcDbBlockBegin
2
*PAPER_SPACE
0
ENDBLK
5
1D
100
AcDbEntity
100
AcDbBlockEnd
0
ENDSEC
0
SECTION
2
ENTITIES
0
LINE
5
100
100
AcDbEntity
8
0
100
AcDbLine
10
0
20
0
30
0
11
215
21
-7.3955709864469857e-31
31
0
0
LINE
5
101
100
AcDbEntity
8
0
100
AcDbLine
10
50
20
-80
30
0
11
19.999999999999996
21
-80
31
0
0
LINE
5
102
100
AcDbEntity
8
0
100
AcDbLine
10
0
20
-30
30
0
11
50
21
-30
31
0
0
LINE
5
103
100
AcDbEntity
8
0
100
AcDbLine
10
50
20
-30
30
0
11
50
21
-56
31
0
0
LINE
5
104
100
AcDbEntity
8
0
100
AcDbLine
10
50
20
-56
30
0
11
-2.1316282072803009e-14
21
-56
31
0
0
LINE
5
105
100
AcDbEntity
8
0
100
AcDbLine
10
215
20
-30
30
0
11
165
21
-30
31
0
0
LINE
5
106
100
AcDbEntity
8
0
100
AcDbLine
10
165
20
-30
30
0
11
165
21
-55.999999999996334
31
0
0
LINE
5
107
100
AcDbEntity
8
0
100
AcDbLine
10
165
20
-55.999999999996334
30
0
11
215.00000000005883
21
-56.000000000002821
31
0
0
LINE
5
108
100
AcDbEntity
8
0
100
AcDbLine
10
100
20
-230
30
0
11
115.0000000000022
21
-230
31
0
0
LINE
5
109
100
AcDbEntity
8
0
100
AcDbLine
10
125.00000000000216
20
-220.00000000000222
30
0
11
125.00000000002427
21
-120.00000000002693
31
0
0
LINE
5
110
100
AcDbEntity
8
0
100
AcDbLine
10
125
20
-79.999999999999986
30
0
11
90
21
-80
31
0
0
LINE
5
111
100
AcDbEntity
8
0
100
AcDbLine
10
90
20
-120
30
0
11
90.000000000000014
21
-220
31
0
0
ARC
5
112
100
AcDbEntity
8
0
100
AcDbCircle
10
50.000000000000014
20
-119.99999999999999
30
0
40
39.999999999999986
210
-0
220
0
230
1
100
AcDbArc
50
0
51
90.000000000000014
0
LINE
5
113
100
AcDbEntity
8
0
100
AcDbLine
10
165.00000000004647
20
-79.999999999999872
30
0
11
195.00000000005062
21
-79.999999999999844
31
0
0
ARC
5
114
100
AcDbEntity
8
0
100
AcDbCircle
10
165.00000000004502
20
-120.00000000000432
30
0
40
40.000000000004441
210
0
220
-0
230
1
100
AcDbArc
50
89.999999999997925
51
180
0
LINE
5
115
100
AcDbEntity
8
0
100
AcDbLine
10
8.8817841970012523e-15
20
-60
30
0
11
-2.1316282072803009e-14
21
-56
31
0
0
LINE
5
116
100
AcDbEntity
8
0
100
AcDbLine
10
0
20
-30
30
0
11
0
21
0
31
0
0
LINE
5
117
100
AcDbEntity
8
0
100
AcDbLine
10
215.00000000005886
20
-60.000000000002274
30
0
11
215.00000000005883
21
-56.000000000002821
31
0
0
LINE
5
118
100
AcDbEntity
8
0
100
AcDbLine
10
215
20
-7.3955709864469857e-31
30
0
11
215
21
-30
31
0
0
ARC
5
119
100
AcDbEntity
8
0
100
AcDbCircle
10
20
20
-60.000000000000007
30
0
40
19.999999999999993
210
0
220
0
230
1
100
AcDbArc
50
180
51
270
0
ARC
5
120
100
AcDbEntity
8
0
100
AcDbCircle
10
195.00000000005886
20
-60.00000000000238
30
0
40
19.99999999999747
210
0
220
0
230
1
100
AcDbArc
50
-90.000000000023618
51
0
0
CIRCLE
5
121
100
AcDbEntity
8
0
100
AcDbCircle
10
190
20
-15
30
0
40
10
210
0
220
0
230
1
0
LINE
5
122
100
AcDbEntity
8
0
100
AcDbLine
10
190
20
-15
30
0
11
200.60660171779824
21
-4.3933982822017894
31
0
0
LINE
5
123
100
AcDbEntity
8
0
100
AcDbLine
10
190
20
-15
30
0
11
190.00010000000003
21
-15
31
0
0
LINE
5
124
100
AcDbEntity
8
0
100
AcDbLine
10
190
20
-15
30
0
11
179.39339828220176
21
-25.60660171779821
31
0
0
LINE
5
125
100
AcDbEntity
8
0
100
AcDbLine
10
190
20
-15
30
0
11
200.60660171779824
21
-25.606601717798174
31
0
0
LINE
5
126
100
AcDbEntity
8
0
100
AcDbLine
10
190
20
-15
30
0
11
179.39339828220176
21
-4.3933982822017761
31
0
0
CIRCLE
5
127
100
AcDbEntity
8
0
100
AcDbCircle
10
190
20
-15
30
0
40
2.5
210
0
220
0
230
1
0
LWPOLYLINE
5
128
100
AcDbEntity
8
0
100
AcDbPolyline
90
4
70
1
43
0.0
10
201.66726188960513
20
-24.545941545981446
10
195.30330085889756
20
-18.181980515338786
42
0.99999999999999989
10
193.1819805153396
20
-20.303300858899899
10
199.54594154598573
20
-26.667261889566486
42
0.99999999999999989
0
LINE
5
129
100
AcDbEntity
8
0
100
AcDbLine
10
200.60660171779824
20
-25.606601717798174
30
0
11
194.24264068711932
21
-19.242640687119291
31
0
0
LWPOLYLINE
5
130
100
AcDbEntity
8
0
100
AcDbPolyline
90
4
70
1
43
0.0
10
180.45405845397494
20
-26.667261889549827
10
186.81801948467341
20
-20.303300858884551
42
0.99999999999999989
10
184.69669914108624
20
-18.181980515354084
10
178.33273811048849
20
-24.54594154604937
42
0.99999999999999989
0
LINE
5
131
100
AcDbEntity
8
0
100
AcDbLine
10
179.39339828220176
20
-25.60660171779821
30
0
11
185.75735931288074
21
-19.24264068711928
31
0
0
LWPOLYLINE
5
132
100
AcDbEntity
8
0
100
AcDbPolyline
90
4
70
1
43
0.0
10
178.33273811039223
20
-5.4540584539758701
10
184.696699141083
20
-11.818019484642686
42
0.99999999999999989
10
186.81801948467822
20
-9.6966991411185361
10
180.45405845398435
20
-3.3327381104006299
42
0.99999999999999989
0
LINE
5
133
100
AcDbEntity
8
0
100
AcDbLine
10
179.39339828220176
20
-4.3933982822017761
30
0
11
185.75735931288068
21
-10.757359312880709
31
0
0
LWPOLYLINE
5
134
100
AcDbEntity
8
0
100
AcDbPolyline
90
4
70
1
43
0.0
10
199.54594154590222
20
-3.3327381104037457
10
193.18198051534415
20
-9.6966991410064658
42
1.0000000129047841
10
195.30330085889847
20
-11.818019484660843
10
201.66726188959603
20
-5.4540584540002213
42
0.99999999999999989
0
LINE
5
135
100
AcDbEntity
8
0
100
AcDbLine
10
200.60660171779824
20
-4.3933982822017894
30
0
11
194.24264068711926
21
-10.75735931288072
31
0
0
LWPOLYLINE
5
136
100
AcDbEntity
8
0
100
AcDbPolyline
90
4
70
1
43
0.0
10
21.81801948466056
20
-20.303300858899117
42
0.99999999999999989
10
19.696699141100886
20
-18.181980515339454
10
13.332738110421971
20
-24.545941546018376
42
0.99999999999999989
10
15.454058453981645
20
-26.667261889578043
0
LINE
5
137
100
AcDbEntity
8
0
100
AcDbLine
10
35.606601717798192
20
-25.60660171779827
30
0
11
29.242640687119277
21
-19.242640687119287
31
0
0
LINE
5
138
100
AcDbEntity
8
0
100
AcDbLine
10
14.393398282201773
20
-4.3933982822018036
30
0
11
20.757359312880688
21
-10.757359312880734
31
0
0
LINE
5
139
100
AcDbEntity
8
0
100
AcDbLine
10
14.393398282201808
20
-25.60660171779821
30
0
11
20.757359312880723
21
-19.242640687119287
31
0
0
LINE
5
140
100
AcDbEntity
8
0
100
AcDbLine
10
35.606601717798192
20
-4.3933982822018161
30
0
11
29.242640687119241
21
-10.757359312880716
31
0
0
LWPOLYLINE
5
141
100
AcDbEntity
8
0
100
AcDbPolyline
90
4
70
1
43
0.0
10
30.303300858899078
20
-18.181980515339468
42
0.99999999999999989
10
28.181980515339475
20
-20.303300858899085
10
34.545941546018426
20
-26.667261889578011
42
0.99999999999999989
10
36.667261889578029
20
-24.545941546018391
0
LWPOLYLINE
5
142
100
AcDbEntity
8
0
100
AcDbPolyline
90
4
70
1
43
0.0
10
28.18198051533944
20
-9.6966991411009129
42
0.99999999999999989
10
30.303300858899114
20
-11.818019484660569
10
36.667261889578029
20
-5.4540584539816228
42
0.9999999925494194
10
34.545941546018355
20
-3.3327381104219667
0
CIRCLE
5
143
100
AcDbEntity
8
0
100
AcDbCircle
10
25
20
-15
30
0
40
2.5
210
0
220
0
230
1
0
CIRCLE
5
144
100
AcDbEntity
8
0
100
AcDbCircle
10
25
20
-15
30
0
40
10
210
0
220
0
230
1
0
LINE
5
145
100
AcDbEntity
8
0
100
AcDbLine
10
24.999999999999964
20
-15.000000000000071
30
0
11
35.606601717798192
21
-25.60660171779827
31
0
0
LWPOLYLINE
5
146
100
AcDbEntity
8
0
100
AcDbPolyline
90
4
70
1
43
0.0
10
13.332738110421936
20
-5.4540584539816352
10
19.696699141100851
20
-11.818019484660564
42
0.99999999999999989
10
21.818019484660525
20
-9.6966991411009005
10
15.454058453981609
20
-3.332738110421972
42
0.99999999999999989
0
LINE
5
147
100
AcDbEntity
8
0
100
AcDbLine
10
25
20
-15.00000000000002
30
0
11
35.606601717798192
21
-4.3933982822018161
31
0
0
LINE
5
148
100
AcDbEntity
8
0
100
AcDbLine
10
25
20
-15.00000000000011
30
0
11
14.393398282201773
21
-4.3933982822019093
31
0
0
LINE
5
149
100
AcDbEntity
8
0
100
AcDbLine
10
25
20
-15.00000000000002
30
0
11
39.999999999999964
21
-15
31
0
0
LINE
5
150
100
AcDbEntity
8
0
100
AcDbLine
10
25
20
-15
30
0
11
14.393398282201808
21
-25.60660171779821
31
0
0
CIRCLE
5
151
100
AcDbEntity
8
0
100
AcDbCircle
10
173
20
-60.999999999996334
30
0
40
1.4999999999999876
210
0
220
0
230
1
0
CIRCLE
5
152
100
AcDbEntity
8
0
100
AcDbCircle
10
207.00000000005858
20
-60.999999999996334
30
0
40
1.4999999999999942
210
0
220
0
230
1
0
CIRCLE
5
153
100
AcDbEntity
8
0
100
AcDbCircle
10
173
20
-25
30
0
40
1.4999999999999987
210
0
220
0
230
1
0
CIRCLE
5
154
100
AcDbEntity
8
0
100
AcDbCircle
10
207
20
-25
30
0
40
1.5000000000000135
210
0
220
0
230
1
0
CIRCLE
5
155
100
AcDbEntity
8
0
100
AcDbCircle
10
5.0000000000000089
20
-61
30
0
40
1.4999999999999991
210
0
220
0
230
1
0
CIRCLE
5
156
100
AcDbEntity
8
0
100
AcDbCircle
10
45
20
-61
30
0
40
1.5000000000000038
210
0
220
0
230
1
0
CIRCLE
5
157
100
AcDbEntity
8
0
100
AcDbCircle
10
43.587513354410632
20
-25
30
0
40
1.5000000000000033
210
0
220
0
230
1
0
CIRCLE
5
158
100
AcDbEntity
8
0
100
AcDbCircle
10
5
20
-25
30
0
40
1.4999999999999991
210
0
220
0
230
1
0
ARC
5
159
100
AcDbEntity
8
0
100
AcDbCircle
10
100.00000000000001
20
-220
30
0
40
10
210
0
220
0
230
1
100
AcDbArc
50
180
51
269.99999999999989
0
ARC
5
160
100
AcDbEntity
8
0
100
AcDbCircle
10
115.00000000000216
20
-220
30
0
40
10
210
0
220
0
230
1
100
AcDbArc
50
270.00000000000023
51
360
0
ENDSEC
0
SECTION
2
OBJECTS
0
DICTIONARY
5
C
100
AcDbDictionary
3
ACAD_GROUP
350
D
3
ACAD_MLINESTYLE
350
17
0
DICTIONARY
5
D
100
AcDbDictionary
0
DICTIONARY
5
1A
330
C
100
AcDbDictionary
0
DICTIONARY
5
17
100
AcDbDictionary
0
ENDSEC
0
EOF
