0
SECTION
2
HEADER
9
$INSUNITS
70
4
9
$ACADVER
1
AC1014
9
$HANDSEED
5
FFFF
0
ENDSEC
0
SECTION
2
TABLES
0
TABLE
2
VPORT
5
8
100
AcDbSymbolTable
0
ENDTAB
0
TABLE
2
LTYPE
5
5
100
AcDbSymbolTable
0
LTYPE
5
14
100
AcDbSymbolTableRecord
100
AcDbLinetypeTableRecord
2
BYBLOCK
70
0
0
LTYPE
5
15
100
AcDbSymbolTableRecord
100
AcDbLinetypeTableRecord
2
BYLAYER
70
0
0
ENDTAB
0
TABLE
2
LAYER
5
2
100
AcDbSymbolTable
70
2
0
LAYER
5
50
100
AcDbSymbolTableRecord
100
AcDbLayerTableRecord
2
0
70
0
6
CONTINUOUS
0
ENDTAB
0
TABLE
2
STYLE
5
3
100
AcDbSymbolTable
70
1
0
STYLE
5
11
100
AcDbSymbolTableRecord
100
AcDbTextStyleTableRecord
2
STANDARD
70
0
0
ENDTAB
0
TABLE
2
VIEW
5
6
100
AcDbSymbolTable
70
0
0
ENDTAB
0
TABLE
2
UCS
5
7
100
AcDbSymbolTable
70
0
0
ENDTAB
0
TABLE
2
APPID
5
9
100
AcDbSymbolTable
70
2
0
APPID
5
12
100
AcDbSymbolTableRecord
100
AcDbRegAppTableRecord
2
ACAD
70
0
0
ENDTAB
0
TABLE
2
DIMSTYLE
5
A
100
AcDbSymbolTable
70
1
0
ENDTAB
0
TABLE
2
BLOCK_RECORD
5
1
100
AcDbSymbolTable
70
1
0
BLOCK_RECORD
5
1F
100
AcDbSymbolTableRecord
100
AcDbBlockTableRecord
2
*MODEL_SPACE
0
BLOCK_RECORD
5
1B
100
AcDbSymbolTableRecord
100
AcDbBlockTableRecord
2
*PAPER_SPACE
0
ENDTAB
0
ENDSEC
0
SECTION
2
BLOCKS
0
BLOCK
5
20
100
AcDbEntity
100
AcDbBlockBegin
2
*MODEL_SPACE
0
ENDBLK
5
21
100
AcDbEntity
100
AcDbBlockEnd
0
BLOCK
5
1C
100
AcDbEntity
100
AcDbBlockBegin
2
*PAPER_SPACE
0
ENDBLK
5
1D
100
AcDbEntity
100
AcDbBlockEnd
0
ENDSEC
0
SECTION
2
ENTITIES
0
ARC
5
100
100
AcDbEntity
8
0
100
AcDbCircle
10
0.31424966403358784
20
-69.999294618936375
30
0
40
4.0000000000000071
210
0
220
0
230
1
100
AcDbArc
50
90.257217713448625
51
270.25721771344865
0
ARC
5
101
100
AcDbEntity
8
0
100
AcDbCircle
10
0
20
-70
30
0
40
4.0000000000000036
210
0
220
0
230
1
100
AcDbArc
50
-90
51
90
0
LWPOLYLINE
5
102
100
AcDbEntity
8
0
100
AcDbPolyline
90
4
70
1
43
0.0
10
66.013853526985514
20
0.33262034765798171
42
0.63645661216253935
10
46.131418674886959
20
11.728605531251524
42
-0.99999999999999989
10
41.527951186203261
20
18.271394468748472
42
-0.6364566121625399
10
73.986146473014486
20
-0.33262034765798187
42
-0.99999999999999989
0
LWPOLYLINE
5
103
100
AcDbEntity
8
0
100
AcDbPolyline
90
4
70
1
43
0.0
10
39.829684930545113
20
19
10
22.972102234664185
20
19
42
0.99999999999999989
10
22.972102234664185
20
11
10
39.829684930545113
20
11
42
0.99999999999999989
0
LWPOLYLINE
5
104
100
AcDbEntity
8
0
100
AcDbPolyline
90
4
70
1
43
0.0
10
-3.9957931820484305
20
35.183403506769359
42
0.48325160251168459
10
23.703854323290553
20
11.067502208418812
42
0.99999999999999989
10
22.240350146037816
20
18.932497791581188
42
-0.48325160251168453
10
3.9957931820484238
20
34.816596493230641
42
0.99999999999999989
0
LWPOLYLINE
5
105
100
AcDbEntity
8
0
100
AcDbPolyline
90
4
70
1
43
0.0
10
-3.9652114909206304
20
35.52640082852421
42
0.61653185227157503
10
-34.461933735137713
20
56.292253217245083
42
-0.99999999999999989
10
-38.347558345166483
20
63.285244093110634
42
-0.61653185227157514
10
3.9652114909206304
20
34.47359917147579
42
-0.99999999999999989
0
LWPOLYLINE
5
106
100
AcDbEntity
8
0
100
AcDbPolyline
90
4
70
1
43
0.0
10
-36.177488802221383
20
56.428570359494408
42
0.41038325492727223
10
-42.770461194491958
20
26.738583719725316
42
-0.99999998946328783
10
-49.547074878326072
20
22.4868185592217
42
-0.41038325492727223
10
-40.517627888111548
20
63.148926950861302
42
-0.99999999999999989
0
LWPOLYLINE
5
107
100
AcDbEntity
8
0
100
AcDbPolyline
90
4
70
1
43
0.0
10
-42.723818861271383
20
22.563036809885809
42
0.27567967323410841
10
-42.72381886127139
20
2.0496643652893169
42
-0.99999999999999989
10
-49.593717256346267
20
-2.0496643652893165
42
-0.2756796732341083
10
-49.593717256346281
20
26.662365540464442
42
-0.99999999999999989
0
LWPOLYLINE
5
108
100
AcDbEntity
8
0
100
AcDbPolyline
90
4
70
1
43
0.0
10
-42.262705815575416
20
-0.90592438804293351
42
0.42954380354288052
10
0.70197689015734532
20
-66.062078156478336
42
-0.99999999999999989
10
-0.70197689015734754
20
-73.937921843521679
42
-0.42954380354288052
10
-50.054830302042255
20
0.90592438804293818
42
-0.99999999999999989
0
LWPOLYLINE
5
109
100
AcDbEntity
8
0
100
AcDbPolyline
90
4
70
1
43
0.0
10
68.88116060997298
20
3.8403383209456976
42
0.25635745456058795
10
-3.8403383209456985
20
-68.88116060997298
42
0.99999999999999989
10
3.8403383209456798
20
-71.118839390027034
42
-0.25635745456058801
10
71.11883939002702
20
-3.8403383209457163
42
1.0000000105367122
0
ENDSEC
0
SECTION
2
OBJECTS
0
DICTIONARY
5
C
100
AcDbDictionary
3
ACAD_GROUP
350
D
3
ACAD_MLINESTYLE
350
17
0
DICTIONARY
5
D
100
AcDbDictionary
0
DICTIONARY
5
1A
330
C
100
AcDbDictionary
0
DICTIONARY
5
17
100
AcDbDictionary
0
ENDSEC
0
EOF
